Coordinates
version=1
nRows=11
nColumns=26
inDegrees=yes

Units are S.I. units (second, meters, Newtons, ...)
Angles are in degrees.

endheader
time	pelvis_tilt	pelvis_list	pelvis_rotation	pelvis_tx	pelvis_ty	pelvis_tz	hip_flexion_r	hip_adduction_r	hip_rotation_r	knee_angle_r	knee_angle_r_beta	ankle_angle_r	subtalar_angle_r	mtp_angle_r	hip_flexion_l	hip_adduction_l	hip_rotation_l	knee_angle_l	knee_angle_l_beta	ankle_angle_l	subtalar_angle_l	mtp_angle_l	lumbar_extension	lumbar_bending	lumbar_rotation
      0.00000000	      5.74606056	     -3.66596770	     -1.52580313	      0.01139186	      0.98390917	      0.15697135	    -20.40376735	      3.23346700	      1.20873033	      9.45647728	      9.45647728	     11.87667458	      0.00000000	      0.00000000	     21.54238339	     -7.86190584	    -11.62344986	     13.85784039	     13.85784039	     -1.32344220	      0.00000000	      0.00000000	    -20.20781557	      3.45243669	      8.35546206
      0.00833333	      5.91614793	     -3.66117274	     -1.89925438	      0.02149738	      0.98342267	      0.15562462	    -20.77098694	      2.92733403	      1.20191877	     10.26256731	     10.26256731	     11.79854108	      0.00000000	      0.00000000	     20.84515895	     -7.77671839	    -11.85247063	     14.01047120	     14.01047120	     -1.58793957	      0.00000000	      0.00000000	    -20.25046405	      3.33335465	      8.61748463
      0.01666667	      5.97151592	     -3.63776415	     -2.26007989	      0.03168284	      0.98283154	      0.15397245	    -20.87698884	      2.55465031	      1.11791222	     11.30363843	     11.30363843	     11.84201243	      0.00000000	      0.00000000	     20.17583571	     -7.60552392	    -11.87120106	     13.79338568	     13.79338568	     -2.80402153	      0.00000000	      0.00000000	    -20.13598186	      3.23953303	      8.79337547
      0.02500000	      5.98032945	     -3.67842640	     -2.57594154	      0.04183037	      0.98239576	      0.15235297	    -20.83926834	      2.28263154	      1.06631800	     12.49690393	     12.49690393	     11.68366691	      0.00000000	      0.00000000	     19.62074400	     -7.51594979	    -11.67227457	     13.70296083	     13.70296083	     -4.28667856	      0.00000000	      0.00000000	    -19.95014943	      3.22026327	      8.85465436
      0.03333333	      5.94150941	     -3.66004099	     -2.81772199	      0.05203723	      0.98203121	      0.15061783	    -20.63269394	      1.96325908	      0.98061213	     13.91433804	     13.91433804	     11.53958583	      0.00000000	      0.00000000	     19.11063346	     -7.39088205	    -11.62573853	     13.53603068	     13.53603068	     -5.82899354	      0.00000000	      0.00000000	    -19.71350833	      3.14024690	      8.79547591
      0.04166667	      5.92273740	     -3.67661636	     -3.06965472	      0.06222283	      0.98187097	      0.14902834	    -20.30831264	      1.67969116	      0.88545312	     15.56233786	     15.56233786	     11.31497786	      0.00000000	      0.00000000	     18.65663101	     -7.39451962	    -11.79642126	     13.61013993	     13.61013993	     -6.98132257	      0.00000000	      0.00000000	    -19.50181686	      3.05813069	      8.73604297
      0.05000000	      5.94979881	     -3.63436932	     -3.26904419	      0.07247781	      0.98197150	      0.14755253	    -19.92114706	      1.34129823	      0.69545548	     17.38908559	     17.38908559	     10.93100008	      0.00000000	      0.00000000	     18.30166020	     -7.40345513	    -12.12375231	     14.14770607	     14.14770607	     -7.30277792	      0.00000000	      0.00000000	    -19.33554523	      2.89114519	      8.59420957
      0.05833333	      5.89293730	     -3.49992386	     -3.41514665	      0.08248588	      0.98227540	      0.14595376	    -19.25554375	      0.90297616	      0.46720948	     19.47531934	     19.47531934	     10.44763774	      0.00000000	      0.00000000	     18.21441105	     -7.33758946	    -12.28555476	     15.12832344	     15.12832344	     -6.83078337	      0.00000000	      0.00000000	    -19.10782868	      2.64012777	      8.34635163
      0.06666667	      5.86386302	     -3.24726163	     -3.44747780	      0.09216649	      0.98294790	      0.14413186	    -18.40046716	      0.34293490	      0.04770008	     21.90122546	     21.90122546	      9.77927841	      0.00000000	      0.00000000	     18.25031491	     -7.09493588	    -12.20926245	     16.40778360	     16.40778360	     -5.87496324	      0.00000000	      0.00000000	    -18.94663060	      2.26294810	      7.99534337
      0.07500000	      5.94560778	     -2.81148911	     -3.45548517	      0.10181508	      0.98413361	      0.14232841	    -17.53915284	     -0.41613791	     -0.33593504	     24.47778981	     24.47778981	      8.92638060	      0.00000000	      0.00000000	     18.08247249	     -6.61432921	    -12.15647882	     17.55284809	     17.55284809	     -4.91563908	      0.00000000	      0.00000000	    -18.93312293	      1.67525882	      7.58828164
      0.08333333	      6.11733944	     -2.32431927	     -3.48133204	      0.11140707	      0.98561482	      0.14046853	    -16.63016326	     -1.27363816	     -0.69586960	     27.16739314	     27.16739314	      7.86683619	      0.00000000	      0.00000000	     17.84247156	     -6.10622460	    -12.12687451	     18.75486652	     18.75486652	     -3.93100100	      0.00000000	      0.00000000	    -19.04279476	      1.02212589	      7.25381694
